<svg xmlns="http://www.w3.org/2000/svg" viewBox="0 0 630.95 252.3"><defs><style>.cls-1{fill:#fff;}</style></defs><g id="Layer_2" data-name="Layer 2"><g id="Layer_1-2" data-name="Layer 1"><path class="cls-1" d="M303.38,129.1H336.9c13.16,0,25.52,6,25.52,22.74,0,17.5-10,24.33-25.52,24.33H321.77V199.7H303.38Zm18.39,32.83h12.37c5.73,0,9.88-2.38,9.88-8.81,0-6.62-4.25-9.29-9.88-9.29H321.77Z"/><path class="cls-1" d="M386.23,129.1h18.69l26.4,70.6H412.14L407.79,187H383.17l-4.45,12.66H359.83Zm1.19,44.3h16l-7.81-24.73h-.2Z"/><path class="cls-1" d="M451.37,176c.4,8.31,5.54,11,13.35,11,5.54,0,11.27-2,11.27-7.22,0-6.22-10.08-7.41-20.27-10.28s-20.65-7.45-20.65-20.4c0-15.42,15.52-21.46,28.77-21.46,14,0,28.18,6.82,28.28,22.75h-18.4c.3-6.43-5.73-8.51-11.37-8.51-4,0-8.9,1.39-8.9,6,0,5.43,10.18,6.42,20.47,9.29s20.47,7.61,20.47,20.37c0,17.9-15.23,23.63-30.76,23.63-16.21,0-30.55-7.12-30.65-25.21Z"/><path class="cls-1" d="M519.17,176c.4,8.31,5.54,11,13.35,11,5.54,0,11.27-2,11.27-7.22,0-6.22-10.08-7.41-20.27-10.28s-20.66-7.42-20.66-20.37c0-15.42,15.52-21.46,28.77-21.46,14,0,28.18,6.82,28.28,22.75H541.52c.29-6.43-5.74-8.51-11.37-8.51-4,0-8.9,1.39-8.9,6,0,5.43,10.18,6.42,20.47,9.29s20.47,7.61,20.47,20.37c0,17.9-15.23,23.63-30.76,23.63-16.21,0-30.55-7.12-30.65-25.21Z"/><path class="cls-1" d="M375.45,51.17h32.08c12.58,0,24.41,5.77,24.41,21.76,0,16.75-9.56,23.28-24.42,23.28H393.07v22.52h-17.6Zm17.62,31.42H404.9c5.48,0,9.46-2.27,9.46-8.43,0-6.34-4.07-8.89-9.46-8.89H393.07Z"/><path class="cls-1" d="M440.42,51.17h17.65v52.42h31.51v15.14h-49.1Z"/><path class="cls-1" d="M497.94,51.17h34.44c11.92,0,23.65,5.39,23.65,19,0,7.29-3.5,14.19-10.6,16.94v.19c7.19,1.7,9.28,9.74,9.84,16.17.19,2.84.48,12.78,2.84,15.24H540.7c-1.51-2.27-1.8-8.9-2-10.79-.48-6.81-1.61-13.81-9.84-13.81H515.53v24.6H497.94ZM515.53,80.5h14.76c5.3,0,8.14-2.83,8.14-7.94s-4-7.29-8.89-7.29h-14Z"/><polygon class="cls-1" points="367.74 51.12 347.02 51.12 334.68 69.48 322.33 51.12 301.61 51.12 324.15 85.14 301.61 118.67 322.99 118.67 334.68 101.03 346.36 118.67 367.74 118.67 345.2 85.14 367.74 51.12"/><path class="cls-1" d="M631,252.3H232.85V0H631Zm-378.09-20H610.94V20H252.86Z"/><path class="cls-1" d="M252.3,252.3H0V0H252.3ZM20,232.3H232.3V20H20Z"/><polygon class="cls-1" points="103.92 112.34 99.56 112.34 99.56 95.14 93.23 95.14 93.23 91.43 110.23 91.43 110.23 95.14 103.92 95.14 103.92 112.34"/><polygon class="cls-1" points="116.14 102.96 116.14 112.34 111.78 112.34 111.78 91.43 116.14 91.43 116.14 99.36 124.29 99.36 124.29 91.43 128.67 91.43 128.67 112.34 124.29 112.34 124.29 102.96 116.14 102.96"/><polygon class="cls-1" points="145.57 95.13 134.59 95.13 134.59 99.53 144.26 99.53 144.26 103.23 134.59 103.23 134.59 108.64 145.56 108.64 145.56 112.33 130.52 112.33 130.52 91.43 145.57 91.43 145.57 95.13"/><polygon class="cls-1" points="63.98 115.56 68.05 115.56 68.05 136.43 63.69 136.43 55.17 121.55 55.11 121.55 55.11 136.43 51.03 136.43 51.03 115.56 55.62 115.56 63.9 130.09 63.98 130.09 63.98 115.56"/><path class="cls-1" d="M80.07,115c2.76,0,10,1.19,10,11s-7.27,11-10,11-10-1.2-10-11,7.28-11,10-11m0,18.29c2.35,0,5.66-1.46,5.66-7.3s-3.31-7.29-5.66-7.29-5.68,1.45-5.68,7.29,3.33,7.3,5.68,7.3"/><polygon class="cls-1" points="120.84 136.43 116.48 136.43 116.48 119.25 110.17 119.25 110.17 115.56 127.13 115.56 127.13 119.25 120.84 119.25 120.84 136.43"/><polygon class="cls-1" points="133.06 127.07 133.06 136.43 128.71 136.43 128.71 115.56 133.06 115.56 133.06 123.46 141.2 123.46 141.2 115.56 145.57 115.56 145.57 136.43 141.2 136.43 141.2 127.07 133.06 127.07"/><path class="cls-1" d="M91.9,115.57h10.56c5.55,0,6.56,4.09,6.56,5.9a5,5,0,0,1-3.23,5c1.72.75,2.65,1.39,2.65,5.29,0,3,0,3.81.93,4.15v.55h-4.83a13.9,13.9,0,0,1-.47-4.21c0-2.85-.16-4-3.4-4h-4.5v8.16H91.9Zm9.4,9.18c2.26,0,3.37-.79,3.37-2.85,0-1.1-.51-2.72-3.06-2.72H96.17v5.57Z"/><polygon class="cls-1" points="81.8 161.16 77.33 161.16 77.33 139.74 92.57 139.74 92.57 143.54 81.8 143.54 81.8 148.37 91.22 148.37 91.22 152.16 81.8 152.16 81.8 161.16"/><path class="cls-1" d="M94.58,161.17H89.87l7.64-21.42h5.16l7.55,21.42h-4.87L104,156.75H96.07Zm2.7-8.11h5.45l-2.66-8.48h0Z"/><path class="cls-1" d="M124,146.86c-.35-1.27-1-3.69-4.74-3.69-2.15,0-5.32,1.43-5.32,7.49,0,3.84,1.53,7.31,5.32,7.31a4.56,4.56,0,0,0,4.74-4h4.47c-.9,4.65-3.93,7.9-9.3,7.9-5.7,0-9.79-3.85-9.79-11.25s4.32-11.3,9.85-11.3c6.41,0,9,4.42,9.24,7.57Z"/><polygon class="cls-1" points="145.64 143.54 134.39 143.54 134.39 148.03 144.31 148.03 144.31 151.83 134.39 151.83 134.39 157.38 145.64 157.38 145.64 161.16 130.23 161.16 130.23 139.74 145.64 139.74 145.64 143.54"/><path class="cls-1" d="M159.87,148.79a9,9,0,0,0-9-9h-1v21.42h10Z"/><path class="cls-1" d="M201.07,141.56A50.12,50.12,0,0,0,151,91.44h-1.09v20.9H151A30.16,30.16,0,0,1,181,142.09v19h20Z"/><path class="cls-1" d="M177.85,142.41a27.08,27.08,0,0,0-27-26.83h-1v20.86h1a12.22,12.22,0,0,1,12.22,12.21v12.47h14.81Z"/></g></g></svg>